<?xml version="1.0" encoding="UTF-8"?>
<svg version="1.1" xmlns="http://www.w3.org/2000/svg" width="512" height="512">
<path d="M0 0 C0.6712793 0.16628906 1.34255859 0.33257813 2.03417969 0.50390625 C25.22729549 6.28879426 47.07133823 17.59758675 65.33984375 32.96875 C66.03207031 33.5359375 66.72429687 34.103125 67.4375 34.6875 C68.01371094 35.18636719 68.58992187 35.68523438 69.18359375 36.19921875 C71.06110424 37.24889982 71.06110424 37.24889982 73.4296875 36.390625 C76.22246511 34.87963894 78.31649466 33.17387834 80.6875 31.0625 C107.3923397 8.79059219 142.27266553 -3.75953125 176.9375 -3.375 C177.68079559 -3.37067963 178.42409119 -3.36635925 179.18991089 -3.36190796 C190.06565002 -3.28786771 200.43822347 -2.80441176 211 0 C212.00691895 0.24943359 212.00691895 0.24943359 213.03417969 0.50390625 C251.86081953 10.18814898 286.20939006 35.88188966 307 70 C321.05109194 93.902411 328.22739218 118.06814402 328.25 145.875 C328.25101212 146.98814575 328.25101212 146.98814575 328.25204468 148.1237793 C328.23623425 159.05218547 327.79342355 169.37823221 325 180 C324.83371094 180.67272949 324.66742188 181.34545898 324.49609375 182.03857422 C322.41553276 190.37815619 319.63639646 198.31577183 316.1875 206.1875 C315.89270752 206.86288818 315.59791504 207.53827637 315.29418945 208.23413086 C311.99156051 215.47758207 307.99432265 222.00993536 304 229 C261.76 229 219.52 229 176 229 C164.49083216 208.28349788 164.49083216 208.28349788 159.3125 198.625 C158.72927979 197.53977051 158.14605957 196.45454102 157.54516602 195.33642578 C154.11701566 188.9546727 150.69667413 182.56873636 147.27851868 176.18162537 C145.08572127 172.08436431 142.88892321 167.98926372 140.69140625 163.89453125 C138.2246787 159.29617631 135.7764344 154.68860647 133.33984375 150.07421875 C132.18504222 147.90356795 131.03010071 145.73299161 129.875 143.5625 C129.09467407 142.07049072 129.09467407 142.07049072 128.29858398 140.54833984 C124.06011743 132.48832163 124.06011743 132.48832163 117 127 C114.76482384 126.72531734 114.76482384 126.72531734 112.25 126.6875 C111.40953125 126.65011719 110.5690625 126.61273438 109.703125 126.57421875 C105.93340007 127.1680049 103.99309629 128.63077137 101 131 C99.32578136 133.35951905 98.13913152 135.87588815 96.93359375 138.5 C96.57791824 139.23939819 96.22224274 139.97879639 95.85578918 140.74060059 C94.70028841 143.15311316 93.56881961 145.57606656 92.4375 148 C91.63578773 149.68618827 90.83271414 151.37172993 90.02832031 153.05664062 C87.66225862 158.02695934 85.32701535 163.01130393 83 168 C82.51929047 169.02867187 82.51929047 169.02867187 82.02886963 170.078125 C79.57035318 175.33957894 77.1222872 180.60578123 74.69311523 185.88085938 C70.6101579 194.74149961 66.38651411 203.52895139 62.12371826 212.30380249 C57.05004907 222.75380009 52.11997302 233.26470146 47.26171875 243.81640625 C44.59856636 249.59455694 41.88678207 255.33002852 39 261 C35.42072424 259.80690808 35.07536967 258.9880143 33.13671875 255.86328125 C32.58693359 254.98736328 32.03714844 254.11144531 31.47070312 253.20898438 C30.88224609 252.25314453 30.29378906 251.29730469 29.6875 250.3125 C28.42079512 248.2876214 27.15386179 246.26288569 25.88671875 244.23828125 C25.24009277 243.19881348 24.5934668 242.1593457 23.92724609 241.08837891 C20.41775744 235.46448336 16.84224792 229.88261292 13.27246094 224.296875 C10.20880368 219.49559538 7.17584837 214.67819101 4.18359375 209.83203125 C3.55646484 208.82462891 2.92933594 207.81722656 2.28320312 206.77929688 C1.08136207 204.84744867 -0.11182028 202.91017796 -1.29492188 200.96679688 C-1.83826172 200.09732422 -2.38160156 199.22785156 -2.94140625 198.33203125 C-3.41263916 197.56608643 -3.88387207 196.8001416 -4.36938477 196.01098633 C-6.85196147 192.94930279 -9.58318855 191.24923308 -13.46484375 190.56640625 C-14.28082031 190.56511719 -15.09679687 190.56382812 -15.9375 190.5625 C-16.75089844 190.54316406 -17.56429687 190.52382812 -18.40234375 190.50390625 C-22.47465033 191.28162495 -25.66067848 193.30272605 -28.24998474 196.58406067 C-29.45993152 198.46293713 -30.57676765 200.37229228 -31.671875 202.3203125 C-32.08036682 203.0201828 -32.48885864 203.7200531 -32.909729 204.44113159 C-34.20278682 206.66186903 -35.47696725 208.89273394 -36.75 211.125 C-38.04092287 213.36211885 -39.33564699 215.5969646 -40.63311768 217.83029175 C-41.43685398 219.21655784 -42.23613738 220.60541739 -43.03045654 221.99710083 C-44.52756259 224.60072174 -45.86591525 226.86591525 -48 229 C-49.97848129 229.27402878 -49.97848129 229.27402878 -52.4520874 229.30780029 C-53.38855103 229.32500122 -54.32501465 229.34220215 -55.28985596 229.35992432 C-56.32052185 229.36844421 -57.35118774 229.37696411 -58.41308594 229.38574219 C-60.03766724 229.41027466 -60.03766724 229.41027466 -61.69506836 229.43530273 C-65.29148117 229.48506666 -68.88773584 229.51805602 -72.484375 229.546875 C-73.71069893 229.55752235 -74.93702286 229.56816971 -76.20050812 229.57913971 C-82.02145815 229.62710754 -87.84234278 229.66558688 -93.66343474 229.69118381 C-99.71155079 229.71830742 -105.7581888 229.77092339 -111.80566406 229.86425781 C-118.29207228 229.96275053 -124.77710467 230.01241668 -131.26422882 230.02664948 C-133.73790746 230.04009826 -136.211554 230.07060524 -138.68480682 230.11843109 C-142.14794967 230.18157748 -145.60577029 230.1818397 -149.06933594 230.16699219 C-150.09190491 230.19980286 -151.11447388 230.23261353 -152.16802979 230.26641846 C-155.10089698 230.21493403 -157.26654858 230.0742488 -160 229 C-162.69779348 225.95501687 -164.33812164 222.68913562 -166 219 C-166.60585937 217.94554687 -167.21171875 216.89109375 -167.8359375 215.8046875 C-173.65348299 204.73067959 -177.49722649 192.98040941 -181 181 C-181.31807617 179.91307861 -181.31807617 179.91307861 -181.64257812 178.80419922 C-187.03829792 159.09787574 -186.20977014 132.62066657 -181 113 C-180.83371094 112.3287207 -180.66742188 111.65744141 -180.49609375 110.96582031 C-174.54623325 87.111287 -162.83901394 64.93929042 -146 47 C-145.43796875 46.39559082 -144.8759375 45.79118164 -144.296875 45.16845703 C-124.64269836 24.22714545 -99.8379999 8.60944622 -72 1 C-71.2879541 0.80245117 -70.5759082 0.60490234 -69.84228516 0.40136719 C-48.24952465 -5.29886037 -21.65494364 -5.74992079 0 0 Z " fill="#000000" transform="translate(184,28)"/>
<path d="M0 0 C0.66 0 1.32 0 2 0 C2.30067383 0.58152832 2.60134766 1.16305664 2.91113281 1.76220703 C8.91329659 13.35595574 14.98507729 24.90339833 21.27294922 36.3449707 C24.17927335 41.64021592 27.04807356 46.9532071 29.87890625 52.2890625 C30.54907198 53.54988622 31.219238 54.81070979 31.8894043 56.0715332 C32.87023867 57.91742457 33.84949244 59.76405804 34.82339478 61.61361694 C36.83611028 65.43571321 38.89705122 69.22684584 41 73 C41.72364746 74.34457275 41.72364746 74.34457275 42.46191406 75.71630859 C42.93081055 76.51504395 43.39970703 77.3137793 43.8828125 78.13671875 C44.46506592 79.1589856 44.46506592 79.1589856 45.05908203 80.2019043 C50.93664611 85.64696838 59.66880139 85.44313703 67.21118164 85.43237305 C68.29514221 85.4425647 69.37910278 85.45275635 70.49591064 85.46325684 C74.05071262 85.49326134 77.60524455 85.5026338 81.16015625 85.51171875 C83.63594957 85.52857469 86.11173438 85.54672615 88.58750916 85.56611633 C95.08276714 85.61352277 101.5779906 85.64339283 108.07336426 85.66955566 C114.7097897 85.69940831 121.34608399 85.74592248 127.98242188 85.79101562 C140.9882177 85.8769424 153.99404113 85.94451244 167 86 C162.60931597 91.25017313 157.99141996 96.1549039 153.15040588 100.99003601 C152.3784269 101.76498612 151.60644791 102.53993622 150.81107563 103.33836967 C148.2365258 105.92155682 145.65844582 108.50119047 143.08032227 111.08081055 C141.22855755 112.93720673 139.37698989 114.79379949 137.52560425 116.65057373 C132.50568603 121.68402146 127.48203958 126.71373694 122.45755887 131.74262977 C119.31814182 134.88481627 116.17946001 138.02773649 113.04090691 141.1707859 C104.34314239 149.88073206 95.64443969 158.58973884 86.94227695 167.29529095 C86.38637009 167.85141738 85.83046322 168.40754381 85.25771069 168.98052256 C84.42192816 169.81663251 84.42192816 169.81663251 83.56926113 170.66963357 C82.44029689 171.79904127 81.31133419 172.92845053 80.18237305 174.05786133 C79.34237753 174.89818899 79.34237753 174.89818899 78.48541241 175.75549296 C69.40280498 184.8420522 60.32697696 193.93535084 51.25403441 203.03155949 C41.92893326 212.38037953 32.59821125 221.72355861 23.26182598 231.06110984 C18.02377703 236.30007481 12.78816365 241.54142308 7.55874825 246.78900719 C2.64330502 251.72146904 -2.27978161 256.64618673 -7.2081337 261.56575012 C-9.01550549 263.3723502 -10.82031329 265.18151955 -12.62235832 266.993433 C-15.08250167 269.46625707 -17.55171731 271.92965498 -20.02342224 274.39091492 C-21.08978217 275.46935945 -21.08978217 275.46935945 -22.17768472 276.56959075 C-26.7838406 281.13034744 -31.30256144 285.31770469 -37.87890625 286.53125 C-38.76449219 286.5209375 -39.65007812 286.510625 -40.5625 286.5 C-41.89474609 286.51546875 -41.89474609 286.51546875 -43.25390625 286.53125 C-49.2986817 285.36184821 -53.59940424 280.68870078 -57.79281616 276.44096375 C-58.34357775 275.89120544 -58.89433934 275.34144713 -59.46179068 274.77502948 C-61.29490342 272.94286469 -63.12079153 271.10366994 -64.94677734 269.2644043 C-66.26427668 267.94470228 -67.58222564 266.625449 -68.90058899 265.30661011 C-71.73376078 262.47050963 -74.56375211 259.63128659 -77.39130783 256.78958702 C-81.86677038 252.29181106 -86.34935345 247.80117693 -90.83291626 243.31147766 C-97.92789119 236.20512793 -105.01817838 229.09412221 -112.1064297 221.98106652 C-124.78945228 209.25373054 -137.47800797 196.53191695 -150.17186511 183.81538707 C-154.62301942 179.35585079 -159.07134881 174.89352147 -163.51739097 170.42888868 C-166.29028381 167.64530833 -169.06524266 164.86379426 -171.84070396 162.08277512 C-173.12184725 160.79817857 -174.40211888 159.512712 -175.68142509 158.22628593 C-181.4167369 152.45977555 -187.13105975 146.72647086 -193.32540321 141.44623661 C-195.92993444 139.19687817 -198.33862208 136.78867549 -200.7734375 134.35595703 C-201.29154495 133.8396019 -201.8096524 133.32324677 -202.34346008 132.79124451 C-204.02313193 131.1159077 -205.69919832 129.43701982 -207.375 127.7578125 C-208.55169341 126.58179381 -209.72853514 125.40592351 -210.90551758 124.23019409 C-213.3544906 121.78268606 -215.80166869 119.33340149 -218.24755859 116.8828125 C-221.38940436 113.73522577 -224.53577825 110.59220945 -227.68347168 107.45047188 C-230.10609158 105.03145247 -232.52634099 102.61007273 -234.94586182 100.18795395 C-236.1062065 99.02694085 -237.26729814 97.8666738 -238.42913818 96.70715714 C-240.04242256 95.0963956 -241.65249544 93.48249309 -243.26171875 91.86767578 C-244.17912842 90.94947052 -245.09653809 90.03126526 -246.04174805 89.0852356 C-248 87 -248 87 -248 86 C-246.21927345 85.98786972 -246.21927345 85.98786972 -244.40257263 85.97549438 C-233.20567187 85.89795362 -222.00889144 85.81019418 -210.81214809 85.71247292 C-205.05602356 85.66256274 -199.29991691 85.6162321 -193.54370117 85.578125 C-187.98691143 85.54120571 -182.43027323 85.49482747 -176.87361336 85.44193649 C-174.75540899 85.42342789 -172.63717218 85.40830693 -170.51891899 85.39665604 C-167.54818128 85.37973323 -164.57778796 85.35068332 -161.60717773 85.31884766 C-160.29842178 85.31560738 -160.29842178 85.31560738 -158.96322632 85.31230164 C-152.83273509 85.22857373 -147.38810563 84.8866756 -142.4140625 80.95703125 C-138.66697696 76.36715463 -135.85975234 71.28982945 -132.9296875 66.15429688 C-132.465625 65.36474609 -132.0015625 64.57519531 -131.5234375 63.76171875 C-131.11013184 63.03944092 -130.69682617 62.31716309 -130.27099609 61.57299805 C-129.85156738 61.05390869 -129.43213867 60.53481934 -129 60 C-128.01 60 -127.02 60 -126 60 C-124.53637695 61.80639648 -124.53637695 61.80639648 -122.98828125 64.37109375 C-122.11115479 65.80243652 -122.11115479 65.80243652 -121.21630859 67.26269531 C-120.58805176 68.31038086 -119.95979492 69.35806641 -119.3125 70.4375 C-117.95837953 72.65056513 -116.60286639 74.86277861 -115.24609375 77.07421875 C-114.89718079 77.64580719 -114.54826782 78.21739563 -114.18878174 78.80630493 C-108.59060173 87.96960451 -102.73602324 96.97167323 -96.92236328 105.99902344 C-95.02495242 108.9610471 -93.14892392 111.93566596 -91.27734375 114.9140625 C-90.12252222 116.73445518 -88.96758068 118.55477174 -87.8125 120.375 C-87.29606934 121.20741211 -86.77963867 122.03982422 -86.24755859 122.89746094 C-82.64457792 128.54809897 -82.64457792 128.54809897 -77 132 C-74.51041497 132.46797437 -74.51041497 132.46797437 -72 132.375 C-71.175 132.38273438 -70.35 132.39046875 -69.5 132.3984375 C-66.30063766 131.88853913 -64.56206516 130.9945719 -62 129 C-60.16630398 126.2278332 -60.16630398 126.2278332 -58.625 122.75 C-58.30104248 122.07163086 -57.97708496 121.39326172 -57.64331055 120.69433594 C-56.87621414 119.08780465 -56.11491622 117.47849799 -55.35791016 115.8671875 C-53.79918956 112.57599464 -52.20476336 109.30283797 -50.60546875 106.03125 C-43.86897831 92.23202738 -37.27774402 78.37546481 -30.84936523 64.4296875 C-26.66791194 55.3795765 -22.35146667 46.40088076 -17.99279785 37.43536377 C-13.28006979 27.73595771 -8.72200669 17.9747799 -4.28662109 8.14550781 C-3.65554443 6.75090332 -3.65554443 6.75090332 -3.01171875 5.328125 C-2.64522217 4.5124707 -2.27872559 3.69681641 -1.90112305 2.85644531 C-1 1 -1 1 0 0 Z " fill="#000000" transform="translate(296,201)"/>
</svg>
